<mxfile host="app.diagrams.net" modified="2023-11-20T07:01:42.913Z" agent="Mozilla/5.0 (Windows NT 10.0; Win64; x64) AppleWebKit/537.36 (KHTML, like Gecko) Chrome/119.0.0.0 Safari/537.36" etag="su6UNF0hXMdprH9kJZSG" version="22.1.3" type="github" pages="2">
  <diagram name="第一张图" id="IMARKQ-kqPo8kbn4JqX1">
    <mxGraphModel dx="1817" dy="925" grid="1" gridSize="10" guides="1" tooltips="1" connect="1" arrows="1" fold="1" page="1" pageScale="1" pageWidth="827" pageHeight="1169" math="0" shadow="0">
      <root>
        <mxCell id="0" />
        <mxCell id="1" parent="0" />
        <mxCell id="RjzEn20Wd36m9YdLc0uV-67" value="" style="rounded=0;whiteSpace=wrap;html=1;dashed=1;fillColor=#d5e8d4;strokeColor=#82b366;" vertex="1" parent="1">
          <mxGeometry x="-450" y="270" width="300" height="190" as="geometry" />
        </mxCell>
        <mxCell id="RjzEn20Wd36m9YdLc0uV-6" value="" style="rounded=0;whiteSpace=wrap;html=1;dashed=1;fillColor=#d5e8d4;strokeColor=#82b366;" vertex="1" parent="1">
          <mxGeometry x="120" y="610" width="310" height="180" as="geometry" />
        </mxCell>
        <mxCell id="RjzEn20Wd36m9YdLc0uV-21" value="" style="rounded=0;whiteSpace=wrap;html=1;fillColor=#d5e8d4;dashed=1;strokeColor=#82b366;" vertex="1" parent="1">
          <mxGeometry x="-110" y="270" width="180" height="190" as="geometry" />
        </mxCell>
        <mxCell id="RjzEn20Wd36m9YdLc0uV-23" value="" style="rounded=0;whiteSpace=wrap;html=1;fillColor=#d5e8d4;dashed=1;strokeColor=#82b366;" vertex="1" parent="1">
          <mxGeometry x="120" y="270" width="320" height="190" as="geometry" />
        </mxCell>
        <mxCell id="RjzEn20Wd36m9YdLc0uV-88" style="edgeStyle=orthogonalEdgeStyle;rounded=0;orthogonalLoop=1;jettySize=auto;html=1;entryX=0.5;entryY=0;entryDx=0;entryDy=0;startArrow=classic;startFill=1;" edge="1" parent="1" source="RjzEn20Wd36m9YdLc0uV-1" target="RjzEn20Wd36m9YdLc0uV-4">
          <mxGeometry relative="1" as="geometry">
            <Array as="points">
              <mxPoint x="345" y="620" />
              <mxPoint x="345" y="620" />
            </Array>
          </mxGeometry>
        </mxCell>
        <mxCell id="RjzEn20Wd36m9YdLc0uV-1" value="总线" style="rounded=0;whiteSpace=wrap;html=1;fillColor=#b1ddf0;strokeColor=#10739e;" vertex="1" parent="1">
          <mxGeometry x="-450" y="510" width="1210" height="60" as="geometry" />
        </mxCell>
        <mxCell id="SuL22iRkv_WuwSVr_0GP-13" style="edgeStyle=orthogonalEdgeStyle;rounded=0;orthogonalLoop=1;jettySize=auto;html=1;entryX=0.456;entryY=0.97;entryDx=0;entryDy=0;entryPerimeter=0;startArrow=classic;startFill=1;endArrow=none;endFill=0;" edge="1" parent="1" source="RjzEn20Wd36m9YdLc0uV-2" target="RjzEn20Wd36m9YdLc0uV-26">
          <mxGeometry relative="1" as="geometry">
            <mxPoint x="200" y="490" as="targetPoint" />
            <Array as="points">
              <mxPoint x="-130" y="329" />
              <mxPoint x="-130" y="480" />
              <mxPoint x="198" y="480" />
            </Array>
          </mxGeometry>
        </mxCell>
        <mxCell id="RjzEn20Wd36m9YdLc0uV-2" value="扫描控制系统" style="rounded=0;whiteSpace=wrap;html=1;" vertex="1" parent="1">
          <mxGeometry x="-280" y="298.68" width="120" height="60" as="geometry" />
        </mxCell>
        <mxCell id="RjzEn20Wd36m9YdLc0uV-3" value="高压电源" style="rounded=0;whiteSpace=wrap;html=1;" vertex="1" parent="1">
          <mxGeometry x="143.5" y="650" width="120" height="110" as="geometry" />
        </mxCell>
        <mxCell id="RjzEn20Wd36m9YdLc0uV-4" value="真空系统" style="rounded=0;whiteSpace=wrap;html=1;" vertex="1" parent="1">
          <mxGeometry x="285" y="650" width="120" height="110" as="geometry" />
        </mxCell>
        <mxCell id="RjzEn20Wd36m9YdLc0uV-5" value="样品台系统&lt;br&gt;" style="rounded=0;whiteSpace=wrap;html=1;fillColor=#ffe6cc;strokeColor=#d79b00;" vertex="1" parent="1">
          <mxGeometry x="480" y="270" width="220.34" height="190" as="geometry" />
        </mxCell>
        <mxCell id="RjzEn20Wd36m9YdLc0uV-7" value="控制模块" style="text;html=1;strokeColor=none;fillColor=none;align=center;verticalAlign=middle;whiteSpace=wrap;rounded=0;" vertex="1" parent="1">
          <mxGeometry x="120" y="610" width="60" height="30" as="geometry" />
        </mxCell>
        <mxCell id="RjzEn20Wd36m9YdLc0uV-65" style="edgeStyle=orthogonalEdgeStyle;rounded=0;orthogonalLoop=1;jettySize=auto;html=1;" edge="1" parent="1" source="RjzEn20Wd36m9YdLc0uV-14" target="RjzEn20Wd36m9YdLc0uV-26">
          <mxGeometry relative="1" as="geometry" />
        </mxCell>
        <mxCell id="RjzEn20Wd36m9YdLc0uV-14" value="信号 PLL" style="rounded=0;whiteSpace=wrap;html=1;" vertex="1" parent="1">
          <mxGeometry x="310" y="387.37" width="120" height="60" as="geometry" />
        </mxCell>
        <mxCell id="SuL22iRkv_WuwSVr_0GP-4" style="edgeStyle=orthogonalEdgeStyle;rounded=0;orthogonalLoop=1;jettySize=auto;html=1;entryX=0.5;entryY=0;entryDx=0;entryDy=0;" edge="1" parent="1" source="RjzEn20Wd36m9YdLc0uV-15" target="RjzEn20Wd36m9YdLc0uV-14">
          <mxGeometry relative="1" as="geometry" />
        </mxCell>
        <mxCell id="RjzEn20Wd36m9YdLc0uV-15" value="内部参考时钟" style="rounded=0;whiteSpace=wrap;html=1;" vertex="1" parent="1">
          <mxGeometry x="310" y="298.69" width="120" height="60" as="geometry" />
        </mxCell>
        <mxCell id="SuL22iRkv_WuwSVr_0GP-3" style="edgeStyle=orthogonalEdgeStyle;rounded=0;orthogonalLoop=1;jettySize=auto;html=1;entryX=0.5;entryY=0;entryDx=0;entryDy=0;" edge="1" parent="1" source="RjzEn20Wd36m9YdLc0uV-16" target="RjzEn20Wd36m9YdLc0uV-14">
          <mxGeometry relative="1" as="geometry">
            <Array as="points">
              <mxPoint x="203" y="370" />
              <mxPoint x="370" y="370" />
            </Array>
          </mxGeometry>
        </mxCell>
        <mxCell id="RjzEn20Wd36m9YdLc0uV-16" value="外部高精度时钟" style="rounded=0;whiteSpace=wrap;html=1;" vertex="1" parent="1">
          <mxGeometry x="143.5" y="298.69" width="120" height="60" as="geometry" />
        </mxCell>
        <mxCell id="RjzEn20Wd36m9YdLc0uV-22" value="探测系统" style="text;html=1;strokeColor=none;fillColor=none;align=center;verticalAlign=middle;whiteSpace=wrap;rounded=0;" vertex="1" parent="1">
          <mxGeometry x="-50" y="268.68" width="60" height="30" as="geometry" />
        </mxCell>
        <mxCell id="RjzEn20Wd36m9YdLc0uV-24" value="时钟系统" style="text;html=1;strokeColor=none;fillColor=none;align=center;verticalAlign=middle;whiteSpace=wrap;rounded=0;" vertex="1" parent="1">
          <mxGeometry x="250" y="268.69" width="60" height="30" as="geometry" />
        </mxCell>
        <mxCell id="RjzEn20Wd36m9YdLc0uV-25" value="信号处理" style="rounded=0;whiteSpace=wrap;html=1;" vertex="1" parent="1">
          <mxGeometry x="-80" y="387.37" width="120" height="60" as="geometry" />
        </mxCell>
        <mxCell id="RjzEn20Wd36m9YdLc0uV-78" style="edgeStyle=orthogonalEdgeStyle;rounded=0;orthogonalLoop=1;jettySize=auto;html=1;entryX=1;entryY=0.5;entryDx=0;entryDy=0;" edge="1" parent="1" source="RjzEn20Wd36m9YdLc0uV-26" target="RjzEn20Wd36m9YdLc0uV-25">
          <mxGeometry relative="1" as="geometry" />
        </mxCell>
        <mxCell id="RjzEn20Wd36m9YdLc0uV-26" value="扫描信号生成器" style="rounded=0;whiteSpace=wrap;html=1;" vertex="1" parent="1">
          <mxGeometry x="143.5" y="387.37" width="120" height="60" as="geometry" />
        </mxCell>
        <mxCell id="SuL22iRkv_WuwSVr_0GP-8" style="edgeStyle=orthogonalEdgeStyle;rounded=0;orthogonalLoop=1;jettySize=auto;html=1;entryX=0.5;entryY=0;entryDx=0;entryDy=0;" edge="1" parent="1" source="RjzEn20Wd36m9YdLc0uV-28" target="RjzEn20Wd36m9YdLc0uV-25">
          <mxGeometry relative="1" as="geometry" />
        </mxCell>
        <mxCell id="RjzEn20Wd36m9YdLc0uV-28" value="探测器" style="rounded=0;whiteSpace=wrap;html=1;" vertex="1" parent="1">
          <mxGeometry x="-80" y="298.69" width="120" height="60" as="geometry" />
        </mxCell>
        <mxCell id="RjzEn20Wd36m9YdLc0uV-39" value="" style="rounded=0;whiteSpace=wrap;html=1;fillColor=#fff2cc;strokeColor=#d6b656;" vertex="1" parent="1">
          <mxGeometry x="470" y="610" width="280" height="180" as="geometry" />
        </mxCell>
        <mxCell id="RjzEn20Wd36m9YdLc0uV-40" value="系统控制" style="rounded=0;whiteSpace=wrap;html=1;" vertex="1" parent="1">
          <mxGeometry x="480" y="640" width="120" height="60" as="geometry" />
        </mxCell>
        <mxCell id="RjzEn20Wd36m9YdLc0uV-41" value="图像显示" style="rounded=0;whiteSpace=wrap;html=1;" vertex="1" parent="1">
          <mxGeometry x="620" y="640" width="120" height="60" as="geometry" />
        </mxCell>
        <mxCell id="RjzEn20Wd36m9YdLc0uV-42" value="状态指示" style="rounded=0;whiteSpace=wrap;html=1;" vertex="1" parent="1">
          <mxGeometry x="480" y="720" width="120" height="60" as="geometry" />
        </mxCell>
        <mxCell id="RjzEn20Wd36m9YdLc0uV-43" value="图像处理" style="rounded=0;whiteSpace=wrap;html=1;" vertex="1" parent="1">
          <mxGeometry x="620" y="720" width="120" height="60" as="geometry" />
        </mxCell>
        <mxCell id="RjzEn20Wd36m9YdLc0uV-45" value="上位机软件包" style="text;html=1;strokeColor=none;fillColor=none;align=center;verticalAlign=middle;whiteSpace=wrap;rounded=0;" vertex="1" parent="1">
          <mxGeometry x="470" y="610" width="80" height="30" as="geometry" />
        </mxCell>
        <mxCell id="RjzEn20Wd36m9YdLc0uV-51" value="汇聚线圈及物镜系统" style="rounded=0;whiteSpace=wrap;html=1;" vertex="1" parent="1">
          <mxGeometry x="-440" y="387.37" width="280" height="60" as="geometry" />
        </mxCell>
        <mxCell id="RjzEn20Wd36m9YdLc0uV-52" value="聚焦及形变控制系统" style="rounded=0;whiteSpace=wrap;html=1;" vertex="1" parent="1">
          <mxGeometry x="-440" y="298.68" width="120" height="60" as="geometry" />
        </mxCell>
        <mxCell id="RjzEn20Wd36m9YdLc0uV-68" value="电子光学系统" style="text;html=1;strokeColor=none;fillColor=none;align=center;verticalAlign=middle;whiteSpace=wrap;rounded=0;" vertex="1" parent="1">
          <mxGeometry x="-337.5" y="270" width="75" height="30" as="geometry" />
        </mxCell>
        <mxCell id="RjzEn20Wd36m9YdLc0uV-69" value="电子发射系统" style="rounded=0;whiteSpace=wrap;html=1;fillColor=#ffe6cc;strokeColor=#d79b00;" vertex="1" parent="1">
          <mxGeometry x="-440" y="610" width="360" height="180" as="geometry" />
        </mxCell>
        <mxCell id="RjzEn20Wd36m9YdLc0uV-71" value="" style="endArrow=none;dashed=1;html=1;dashPattern=1 3;strokeWidth=2;rounded=0;" edge="1" parent="1">
          <mxGeometry width="50" height="50" relative="1" as="geometry">
            <mxPoint x="100" y="820" as="sourcePoint" />
            <mxPoint x="100" y="250" as="targetPoint" />
          </mxGeometry>
        </mxCell>
        <mxCell id="RjzEn20Wd36m9YdLc0uV-86" style="edgeStyle=orthogonalEdgeStyle;rounded=0;orthogonalLoop=1;jettySize=auto;html=1;" edge="1" parent="1" source="RjzEn20Wd36m9YdLc0uV-3" target="RjzEn20Wd36m9YdLc0uV-69">
          <mxGeometry relative="1" as="geometry">
            <Array as="points">
              <mxPoint x="30" y="705" />
              <mxPoint x="30" y="705" />
            </Array>
          </mxGeometry>
        </mxCell>
        <mxCell id="SuL22iRkv_WuwSVr_0GP-11" style="edgeStyle=orthogonalEdgeStyle;rounded=0;orthogonalLoop=1;jettySize=auto;html=1;entryX=0.788;entryY=0.03;entryDx=0;entryDy=0;entryPerimeter=0;" edge="1" parent="1" source="RjzEn20Wd36m9YdLc0uV-2" target="RjzEn20Wd36m9YdLc0uV-51">
          <mxGeometry relative="1" as="geometry" />
        </mxCell>
        <mxCell id="SuL22iRkv_WuwSVr_0GP-12" style="edgeStyle=orthogonalEdgeStyle;rounded=0;orthogonalLoop=1;jettySize=auto;html=1;entryX=0.214;entryY=0.044;entryDx=0;entryDy=0;entryPerimeter=0;" edge="1" parent="1" source="RjzEn20Wd36m9YdLc0uV-52" target="RjzEn20Wd36m9YdLc0uV-51">
          <mxGeometry relative="1" as="geometry" />
        </mxCell>
        <mxCell id="SuL22iRkv_WuwSVr_0GP-15" style="edgeStyle=orthogonalEdgeStyle;rounded=0;orthogonalLoop=1;jettySize=auto;html=1;entryX=0.876;entryY=1.008;entryDx=0;entryDy=0;entryPerimeter=0;startArrow=classic;startFill=1;" edge="1" parent="1" source="RjzEn20Wd36m9YdLc0uV-39" target="RjzEn20Wd36m9YdLc0uV-1">
          <mxGeometry relative="1" as="geometry" />
        </mxCell>
        <mxCell id="SuL22iRkv_WuwSVr_0GP-19" style="edgeStyle=orthogonalEdgeStyle;rounded=0;orthogonalLoop=1;jettySize=auto;html=1;entryX=0.355;entryY=0;entryDx=0;entryDy=0;entryPerimeter=0;" edge="1" parent="1" source="RjzEn20Wd36m9YdLc0uV-25" target="RjzEn20Wd36m9YdLc0uV-1">
          <mxGeometry relative="1" as="geometry" />
        </mxCell>
        <mxCell id="SuL22iRkv_WuwSVr_0GP-20" style="edgeStyle=orthogonalEdgeStyle;rounded=0;orthogonalLoop=1;jettySize=auto;html=1;entryX=0.54;entryY=1.022;entryDx=0;entryDy=0;entryPerimeter=0;startArrow=classic;startFill=1;" edge="1" parent="1" source="RjzEn20Wd36m9YdLc0uV-3" target="RjzEn20Wd36m9YdLc0uV-1">
          <mxGeometry relative="1" as="geometry" />
        </mxCell>
      </root>
    </mxGraphModel>
  </diagram>
  <diagram id="fJ9N5UrmAKBYZuT-JlSz" name="第二张图">
    <mxGraphModel dx="2045" dy="1138" grid="1" gridSize="10" guides="1" tooltips="1" connect="1" arrows="1" fold="1" page="1" pageScale="1" pageWidth="827" pageHeight="1169" math="0" shadow="0">
      <root>
        <mxCell id="0" />
        <mxCell id="1" parent="0" />
        <mxCell id="PyJPMPSDaEY4yBmMUNlM-2" value="" style="rounded=0;whiteSpace=wrap;html=1;fillColor=#fad9d5;strokeColor=#ae4132;dashed=1;" vertex="1" parent="1">
          <mxGeometry x="480" y="260" width="230" height="200" as="geometry" />
        </mxCell>
        <mxCell id="GcrCqXwpjjocN1Z9c7bF-2" value="" style="rounded=0;whiteSpace=wrap;html=1;dashed=1;fillColor=#d5e8d4;strokeColor=#82b366;" vertex="1" parent="1">
          <mxGeometry x="120" y="590" width="310" height="200" as="geometry" />
        </mxCell>
        <mxCell id="b8TJuR6QZRg3CGlIS3yy-1" value="" style="rounded=0;whiteSpace=wrap;html=1;fillColor=#fad9d5;strokeColor=#ae4132;dashed=1;" vertex="1" parent="1">
          <mxGeometry x="130" y="620" width="290" height="160" as="geometry" />
        </mxCell>
        <mxCell id="GcrCqXwpjjocN1Z9c7bF-1" value="" style="rounded=0;whiteSpace=wrap;html=1;dashed=1;fillColor=#d5e8d4;strokeColor=#82b366;" vertex="1" parent="1">
          <mxGeometry x="-450" y="270" width="300" height="190" as="geometry" />
        </mxCell>
        <mxCell id="GcrCqXwpjjocN1Z9c7bF-3" value="" style="rounded=0;whiteSpace=wrap;html=1;fillColor=#d5e8d4;dashed=1;strokeColor=#82b366;" vertex="1" parent="1">
          <mxGeometry x="-110" y="270" width="180" height="190" as="geometry" />
        </mxCell>
        <mxCell id="GcrCqXwpjjocN1Z9c7bF-4" value="" style="rounded=0;whiteSpace=wrap;html=1;fillColor=#d5e8d4;dashed=1;strokeColor=#82b366;" vertex="1" parent="1">
          <mxGeometry x="120" y="270" width="320" height="190" as="geometry" />
        </mxCell>
        <mxCell id="GcrCqXwpjjocN1Z9c7bF-5" style="edgeStyle=orthogonalEdgeStyle;rounded=0;orthogonalLoop=1;jettySize=auto;html=1;entryX=0.5;entryY=0;entryDx=0;entryDy=0;startArrow=classic;startFill=1;" edge="1" parent="1" source="GcrCqXwpjjocN1Z9c7bF-6" target="GcrCqXwpjjocN1Z9c7bF-10">
          <mxGeometry relative="1" as="geometry">
            <Array as="points">
              <mxPoint x="345" y="620" />
              <mxPoint x="345" y="620" />
            </Array>
          </mxGeometry>
        </mxCell>
        <mxCell id="GcrCqXwpjjocN1Z9c7bF-6" value="总线" style="rounded=0;whiteSpace=wrap;html=1;fillColor=#b1ddf0;strokeColor=#10739e;" vertex="1" parent="1">
          <mxGeometry x="-450" y="510" width="1210" height="60" as="geometry" />
        </mxCell>
        <mxCell id="GcrCqXwpjjocN1Z9c7bF-7" style="edgeStyle=orthogonalEdgeStyle;rounded=0;orthogonalLoop=1;jettySize=auto;html=1;entryX=0.456;entryY=0.97;entryDx=0;entryDy=0;entryPerimeter=0;startArrow=classic;startFill=1;endArrow=none;endFill=0;" edge="1" parent="1" source="GcrCqXwpjjocN1Z9c7bF-8" target="GcrCqXwpjjocN1Z9c7bF-23">
          <mxGeometry relative="1" as="geometry">
            <mxPoint x="200" y="490" as="targetPoint" />
            <Array as="points">
              <mxPoint x="-130" y="329" />
              <mxPoint x="-130" y="480" />
              <mxPoint x="198" y="480" />
            </Array>
          </mxGeometry>
        </mxCell>
        <mxCell id="GcrCqXwpjjocN1Z9c7bF-8" value="扫描控制系统" style="rounded=0;whiteSpace=wrap;html=1;" vertex="1" parent="1">
          <mxGeometry x="-280" y="298.68" width="120" height="60" as="geometry" />
        </mxCell>
        <mxCell id="GcrCqXwpjjocN1Z9c7bF-9" value="高压电源" style="rounded=0;whiteSpace=wrap;html=1;" vertex="1" parent="1">
          <mxGeometry x="143.5" y="650" width="120" height="110" as="geometry" />
        </mxCell>
        <mxCell id="GcrCqXwpjjocN1Z9c7bF-10" value="真空系统" style="rounded=0;whiteSpace=wrap;html=1;" vertex="1" parent="1">
          <mxGeometry x="285" y="650" width="120" height="110" as="geometry" />
        </mxCell>
        <mxCell id="GcrCqXwpjjocN1Z9c7bF-11" value="样品台系统&lt;br&gt;" style="rounded=0;whiteSpace=wrap;html=1;fillColor=#ffe6cc;strokeColor=#d79b00;" vertex="1" parent="1">
          <mxGeometry x="505" y="285" width="180" height="150" as="geometry" />
        </mxCell>
        <mxCell id="GcrCqXwpjjocN1Z9c7bF-12" value="控制模块" style="text;html=1;strokeColor=none;fillColor=none;align=center;verticalAlign=middle;whiteSpace=wrap;rounded=0;" vertex="1" parent="1">
          <mxGeometry x="120" y="590" width="60" height="30" as="geometry" />
        </mxCell>
        <mxCell id="GcrCqXwpjjocN1Z9c7bF-13" style="edgeStyle=orthogonalEdgeStyle;rounded=0;orthogonalLoop=1;jettySize=auto;html=1;" edge="1" parent="1" source="GcrCqXwpjjocN1Z9c7bF-14" target="GcrCqXwpjjocN1Z9c7bF-23">
          <mxGeometry relative="1" as="geometry" />
        </mxCell>
        <mxCell id="GcrCqXwpjjocN1Z9c7bF-14" value="信号 PLL" style="rounded=0;whiteSpace=wrap;html=1;" vertex="1" parent="1">
          <mxGeometry x="310" y="387.37" width="120" height="60" as="geometry" />
        </mxCell>
        <mxCell id="GcrCqXwpjjocN1Z9c7bF-15" style="edgeStyle=orthogonalEdgeStyle;rounded=0;orthogonalLoop=1;jettySize=auto;html=1;entryX=0.5;entryY=0;entryDx=0;entryDy=0;" edge="1" parent="1" source="GcrCqXwpjjocN1Z9c7bF-16" target="GcrCqXwpjjocN1Z9c7bF-14">
          <mxGeometry relative="1" as="geometry" />
        </mxCell>
        <mxCell id="GcrCqXwpjjocN1Z9c7bF-16" value="内部参考时钟" style="rounded=0;whiteSpace=wrap;html=1;" vertex="1" parent="1">
          <mxGeometry x="310" y="298.69" width="120" height="60" as="geometry" />
        </mxCell>
        <mxCell id="GcrCqXwpjjocN1Z9c7bF-17" style="edgeStyle=orthogonalEdgeStyle;rounded=0;orthogonalLoop=1;jettySize=auto;html=1;entryX=0.5;entryY=0;entryDx=0;entryDy=0;" edge="1" parent="1" source="GcrCqXwpjjocN1Z9c7bF-18" target="GcrCqXwpjjocN1Z9c7bF-14">
          <mxGeometry relative="1" as="geometry">
            <Array as="points">
              <mxPoint x="203" y="370" />
              <mxPoint x="370" y="370" />
            </Array>
          </mxGeometry>
        </mxCell>
        <mxCell id="GcrCqXwpjjocN1Z9c7bF-18" value="外部高精度时钟" style="rounded=0;whiteSpace=wrap;html=1;" vertex="1" parent="1">
          <mxGeometry x="143.5" y="298.69" width="120" height="60" as="geometry" />
        </mxCell>
        <mxCell id="GcrCqXwpjjocN1Z9c7bF-19" value="探测系统" style="text;html=1;strokeColor=none;fillColor=none;align=center;verticalAlign=middle;whiteSpace=wrap;rounded=0;" vertex="1" parent="1">
          <mxGeometry x="-50" y="268.68" width="60" height="30" as="geometry" />
        </mxCell>
        <mxCell id="GcrCqXwpjjocN1Z9c7bF-20" value="时钟系统" style="text;html=1;strokeColor=none;fillColor=none;align=center;verticalAlign=middle;whiteSpace=wrap;rounded=0;" vertex="1" parent="1">
          <mxGeometry x="250" y="268.69" width="60" height="30" as="geometry" />
        </mxCell>
        <mxCell id="GcrCqXwpjjocN1Z9c7bF-21" value="信号处理" style="rounded=0;whiteSpace=wrap;html=1;" vertex="1" parent="1">
          <mxGeometry x="-80" y="387.37" width="120" height="60" as="geometry" />
        </mxCell>
        <mxCell id="GcrCqXwpjjocN1Z9c7bF-22" style="edgeStyle=orthogonalEdgeStyle;rounded=0;orthogonalLoop=1;jettySize=auto;html=1;entryX=1;entryY=0.5;entryDx=0;entryDy=0;" edge="1" parent="1" source="GcrCqXwpjjocN1Z9c7bF-23" target="GcrCqXwpjjocN1Z9c7bF-21">
          <mxGeometry relative="1" as="geometry" />
        </mxCell>
        <mxCell id="GcrCqXwpjjocN1Z9c7bF-23" value="扫描信号生成器" style="rounded=0;whiteSpace=wrap;html=1;" vertex="1" parent="1">
          <mxGeometry x="143.5" y="387.37" width="120" height="60" as="geometry" />
        </mxCell>
        <mxCell id="GcrCqXwpjjocN1Z9c7bF-24" style="edgeStyle=orthogonalEdgeStyle;rounded=0;orthogonalLoop=1;jettySize=auto;html=1;entryX=0.5;entryY=0;entryDx=0;entryDy=0;" edge="1" parent="1" source="GcrCqXwpjjocN1Z9c7bF-25" target="GcrCqXwpjjocN1Z9c7bF-21">
          <mxGeometry relative="1" as="geometry" />
        </mxCell>
        <mxCell id="GcrCqXwpjjocN1Z9c7bF-25" value="探测器" style="rounded=0;whiteSpace=wrap;html=1;" vertex="1" parent="1">
          <mxGeometry x="-80" y="298.69" width="120" height="60" as="geometry" />
        </mxCell>
        <mxCell id="GcrCqXwpjjocN1Z9c7bF-26" value="" style="rounded=0;whiteSpace=wrap;html=1;fillColor=#fff2cc;strokeColor=#d6b656;" vertex="1" parent="1">
          <mxGeometry x="470" y="610" width="280" height="180" as="geometry" />
        </mxCell>
        <mxCell id="GcrCqXwpjjocN1Z9c7bF-27" value="系统控制" style="rounded=0;whiteSpace=wrap;html=1;" vertex="1" parent="1">
          <mxGeometry x="480" y="640" width="120" height="60" as="geometry" />
        </mxCell>
        <mxCell id="GcrCqXwpjjocN1Z9c7bF-28" value="图像显示" style="rounded=0;whiteSpace=wrap;html=1;" vertex="1" parent="1">
          <mxGeometry x="620" y="640" width="120" height="60" as="geometry" />
        </mxCell>
        <mxCell id="GcrCqXwpjjocN1Z9c7bF-29" value="状态指示" style="rounded=0;whiteSpace=wrap;html=1;" vertex="1" parent="1">
          <mxGeometry x="480" y="720" width="120" height="60" as="geometry" />
        </mxCell>
        <mxCell id="GcrCqXwpjjocN1Z9c7bF-30" value="图像处理" style="rounded=0;whiteSpace=wrap;html=1;" vertex="1" parent="1">
          <mxGeometry x="620" y="720" width="120" height="60" as="geometry" />
        </mxCell>
        <mxCell id="GcrCqXwpjjocN1Z9c7bF-31" value="上位机软件包" style="text;html=1;strokeColor=none;fillColor=none;align=center;verticalAlign=middle;whiteSpace=wrap;rounded=0;" vertex="1" parent="1">
          <mxGeometry x="470" y="610" width="80" height="30" as="geometry" />
        </mxCell>
        <mxCell id="GcrCqXwpjjocN1Z9c7bF-32" value="汇聚线圈及物镜系统" style="rounded=0;whiteSpace=wrap;html=1;" vertex="1" parent="1">
          <mxGeometry x="-440" y="387.37" width="280" height="60" as="geometry" />
        </mxCell>
        <mxCell id="GcrCqXwpjjocN1Z9c7bF-33" value="聚焦及形变控制系统" style="rounded=0;whiteSpace=wrap;html=1;" vertex="1" parent="1">
          <mxGeometry x="-440" y="298.68" width="120" height="60" as="geometry" />
        </mxCell>
        <mxCell id="GcrCqXwpjjocN1Z9c7bF-34" value="电子光学系统" style="text;html=1;strokeColor=none;fillColor=none;align=center;verticalAlign=middle;whiteSpace=wrap;rounded=0;" vertex="1" parent="1">
          <mxGeometry x="-337.5" y="270" width="75" height="30" as="geometry" />
        </mxCell>
        <mxCell id="GcrCqXwpjjocN1Z9c7bF-35" value="电子发射系统" style="rounded=0;whiteSpace=wrap;html=1;fillColor=#ffe6cc;strokeColor=#d79b00;" vertex="1" parent="1">
          <mxGeometry x="-440" y="610" width="360" height="180" as="geometry" />
        </mxCell>
        <mxCell id="GcrCqXwpjjocN1Z9c7bF-36" value="" style="endArrow=none;dashed=1;html=1;dashPattern=1 3;strokeWidth=2;rounded=0;" edge="1" parent="1">
          <mxGeometry width="50" height="50" relative="1" as="geometry">
            <mxPoint x="100" y="820" as="sourcePoint" />
            <mxPoint x="100" y="250" as="targetPoint" />
          </mxGeometry>
        </mxCell>
        <mxCell id="GcrCqXwpjjocN1Z9c7bF-37" style="edgeStyle=orthogonalEdgeStyle;rounded=0;orthogonalLoop=1;jettySize=auto;html=1;" edge="1" parent="1" source="GcrCqXwpjjocN1Z9c7bF-9" target="GcrCqXwpjjocN1Z9c7bF-35">
          <mxGeometry relative="1" as="geometry">
            <Array as="points">
              <mxPoint x="30" y="705" />
              <mxPoint x="30" y="705" />
            </Array>
          </mxGeometry>
        </mxCell>
        <mxCell id="GcrCqXwpjjocN1Z9c7bF-38" style="edgeStyle=orthogonalEdgeStyle;rounded=0;orthogonalLoop=1;jettySize=auto;html=1;entryX=0.788;entryY=0.03;entryDx=0;entryDy=0;entryPerimeter=0;" edge="1" parent="1" source="GcrCqXwpjjocN1Z9c7bF-8" target="GcrCqXwpjjocN1Z9c7bF-32">
          <mxGeometry relative="1" as="geometry" />
        </mxCell>
        <mxCell id="GcrCqXwpjjocN1Z9c7bF-39" style="edgeStyle=orthogonalEdgeStyle;rounded=0;orthogonalLoop=1;jettySize=auto;html=1;entryX=0.214;entryY=0.044;entryDx=0;entryDy=0;entryPerimeter=0;" edge="1" parent="1" source="GcrCqXwpjjocN1Z9c7bF-33" target="GcrCqXwpjjocN1Z9c7bF-32">
          <mxGeometry relative="1" as="geometry" />
        </mxCell>
        <mxCell id="GcrCqXwpjjocN1Z9c7bF-40" style="edgeStyle=orthogonalEdgeStyle;rounded=0;orthogonalLoop=1;jettySize=auto;html=1;entryX=0.876;entryY=1.008;entryDx=0;entryDy=0;entryPerimeter=0;startArrow=classic;startFill=1;" edge="1" parent="1" source="GcrCqXwpjjocN1Z9c7bF-26" target="GcrCqXwpjjocN1Z9c7bF-6">
          <mxGeometry relative="1" as="geometry" />
        </mxCell>
        <mxCell id="GcrCqXwpjjocN1Z9c7bF-41" style="edgeStyle=orthogonalEdgeStyle;rounded=0;orthogonalLoop=1;jettySize=auto;html=1;entryX=0.355;entryY=0;entryDx=0;entryDy=0;entryPerimeter=0;" edge="1" parent="1" source="GcrCqXwpjjocN1Z9c7bF-21" target="GcrCqXwpjjocN1Z9c7bF-6">
          <mxGeometry relative="1" as="geometry" />
        </mxCell>
        <mxCell id="GcrCqXwpjjocN1Z9c7bF-42" style="edgeStyle=orthogonalEdgeStyle;rounded=0;orthogonalLoop=1;jettySize=auto;html=1;entryX=0.54;entryY=1.022;entryDx=0;entryDy=0;entryPerimeter=0;startArrow=classic;startFill=1;" edge="1" parent="1" source="GcrCqXwpjjocN1Z9c7bF-9" target="GcrCqXwpjjocN1Z9c7bF-6">
          <mxGeometry relative="1" as="geometry" />
        </mxCell>
        <mxCell id="PyJPMPSDaEY4yBmMUNlM-1" value="关键器件" style="text;html=1;strokeColor=none;fillColor=none;align=center;verticalAlign=middle;whiteSpace=wrap;rounded=0;" vertex="1" parent="1">
          <mxGeometry x="130" y="620" width="60" height="30" as="geometry" />
        </mxCell>
        <mxCell id="PyJPMPSDaEY4yBmMUNlM-4" value="关键器件" style="text;html=1;strokeColor=none;fillColor=none;align=center;verticalAlign=middle;whiteSpace=wrap;rounded=0;" vertex="1" parent="1">
          <mxGeometry x="480" y="260" width="60" height="30" as="geometry" />
        </mxCell>
      </root>
    </mxGraphModel>
  </diagram>
</mxfile>
